<?xml version="1.0" encoding="UTF-8"?>
<svg width="1200pt" height="1200pt" version="1.1" viewBox="0 0 1200 1200" xmlns="http://www.w3.org/2000/svg">
 <g>
  <path d="m412.5 1075-131.25-175.01h-18.75c-49.711-0.058594-97.367-19.832-132.52-54.984-35.152-35.148-54.926-82.805-54.984-132.52v-375c0.058594-49.711 19.832-97.367 54.984-132.52 35.148-35.152 82.805-54.926 132.52-54.984h675c49.711 0.058594 97.367 19.832 132.52 54.984 35.152 35.148 54.926 82.805 54.984 132.52v375c-0.058594 49.711-19.832 97.367-54.984 132.52-35.148 35.152-82.805 54.926-132.52 54.984h-393.75zm-150-850.01c-29.836 0-58.453 11.852-79.551 32.949-21.098 21.098-32.949 49.715-32.949 79.551v375c0 29.836 11.852 58.453 32.949 79.551 21.098 21.098 49.715 32.949 79.551 32.949h56.25l93.75 124.99 93.75-124.99h431.25c29.836 0 58.453-11.852 79.551-32.949 21.098-21.098 32.949-49.715 32.949-79.551v-375c0-29.836-11.852-58.453-32.949-79.551-21.098-21.098-49.715-32.949-79.551-32.949z"/>
  <path d="m262.5 337.5h675v75h-675z"/>
  <path d="m262.5 487.5h675v75h-675z"/>
  <path d="m262.5 637.5h675v75h-675z"/>
 </g>
</svg>
