<?xml version="1.0" encoding="UTF-8"?>
<svg width="1200pt" height="1200pt" version="1.1" viewBox="0 0 1200 1200" xmlns="http://www.w3.org/2000/svg">
 <path d="m908.4 740.4c-4.8008-7.1992-14.398-12-24-9.6016-12 2.3984-24 3.6016-36 3.6016-121.2 0-220.8-98.398-220.8-220.8 0-75.602 38.398-145.2 103.2-186 8.3984-4.8008 12-14.398 10.801-22.801-1.1992-9.6016-7.1992-16.801-16.801-20.398-33.602-10.801-69.602-16.801-105.6-16.801-183.6 0-333.6 150-333.6 333.6 0 183.6 150 333.6 333.6 333.6 118.8 0 229.2-63.602 289.2-166.8 6.0039-9.6016 6.0039-20.398 0.003907-27.602z" fill="#f1c30f"/>
</svg>
