<?xml version="1.0" encoding="UTF-8"?>
<svg width="1200pt" height="1200pt" version="1.1" viewBox="0 0 1200 1200" xmlns="http://www.w3.org/2000/svg">
 <g>
  <path d="m578.4 859.2c8.3984 8.3984 16.801 9.6016 21.602 9.6016s14.398-1.1992 21.602-9.6016l244.8-266.4c10.801-12 10.801-31.199-1.1992-42s-31.199-10.801-42 1.1992l-223.2 242.4-223.2-242.4c-10.801-12-30-13.199-42-1.1992-12 10.801-13.199 30-1.1992 42z"/>
  <path d="m578.4 648c8.3984 8.3984 16.801 9.6016 21.602 9.6016s14.398-1.1992 21.602-9.6016l244.8-266.4c10.801-12 10.801-31.199-1.1992-42-12-10.801-31.199-10.801-42 1.1992l-223.2 242.4-223.2-242.4c-10.801-12-30-13.199-42-1.1992-12 10.801-13.199 30-1.1992 42z"/>
 </g>
</svg>
