<?xml version="1.0" encoding="UTF-8"?>
<svg width="1200pt" height="1200pt" version="1.1" viewBox="0 0 1200 1200" xmlns="http://www.w3.org/2000/svg">
 <g>
  <path d="m1142.4 601.2c-2.3984-32.398-10.801-62.398-25.199-92.398-44.398-96-61.199-110.4-79.199-118.8-24-12-115.2-34.801-145.2-34.801-25.199 0-46.801 9.6016-139.2 97.199-31.199 28.801-63.602 55.199-98.398 79.199l-50.398 33.602c-24 16.801-31.199 49.199-14.398 73.199s49.199 31.199 73.199 14.398l50.398-33.602c30-20.398 60-43.199 88.801-67.199l-42 136.8-127.2 126c-30 28.801-49.199 66-56.398 106.8l-30 172.8c-6 34.801 16.801 68.398 51.602 74.398 3.6016 1.1992 7.1992 1.1992 10.801 1.1992 30 0 57.602-21.602 62.398-52.801l30-172.8c2.3984-14.398 9.6016-27.602 19.199-37.199l108-105.6-7.1992 82.801c-3.6016 38.398 4.8008 76.801 22.801 110.4l75.602 141.6c12 21.602 33.602 33.602 56.398 33.602 9.6016 0 20.398-2.3984 30-7.1992 31.199-16.801 43.199-55.199 26.398-86.398l-75.602-141.6c-6-12-9.6016-25.199-8.3984-38.398l15.602-169.2 62.398-152.4c3.6016 12 7.1992 25.199 8.3984 37.199l12 129.6c2.3984 27.602 25.199 48 52.801 48h4.8008c28.801-2.3984 50.398-28.801 48-57.602z"/>
  <path d="m1073.5 122.48c59.637 25.73 87.121 94.938 61.387 154.57-25.73 59.633-94.938 87.117-154.57 61.387-59.637-25.734-87.121-94.938-61.387-154.57 25.73-59.637 94.938-87.121 154.57-61.387"/>
  <path d="m337.2 756 141.6-333.6 264-39.602c28.801-4.8008 49.199-31.199 44.398-60s-31.199-49.199-60-44.398l-266.4 39.602c-36 4.8008-72 8.3984-108 8.3984-34.801 0-68.398 2.3984-103.2 6l-81.602 9.6016c-46.801 6-85.199 40.801-94.801 86.398l-26.398 117.6c-6 28.801 12 57.602 40.801 63.602 3.6016 1.1992 7.1992 1.1992 12 1.1992 24 0 46.801-16.801 51.602-42l26.398-117.6c0-2.3984 2.3984-3.6016 4.8008-3.6016l52.801-6-60 186c-12 38.398-7.1992 79.199 13.199 114l14.398 24-138 319.2c-13.199 31.199 1.1992 67.199 32.398 80.398 7.1992 3.6016 15.602 4.8008 24 4.8008 24 0 46.801-14.398 56.398-37.199l98.402-232.8-10.801 205.2c-1.1992 33.602 24 62.398 57.602 64.801h3.6016c32.398 0 58.801-25.199 61.199-57.602l10.801-207.6c1.1992-27.602-4.8008-55.199-19.199-78z"/>
  <path d="m400.49 58.816c64.566 7.0273 111.21 65.066 104.18 129.63-7.0273 64.562-65.066 111.21-129.63 104.18-64.566-7.0273-111.21-65.062-104.18-129.63 7.0273-64.566 65.066-111.21 129.63-104.18"/>
  <path d="m676.8 166.8-28.801 22.801c-4.8008 3.6016-7.1992 9.6016-6 15.602s6 10.801 12 12l52.801 12h3.6016c7.1992 0 14.398-4.8008 15.602-12 2.3984-8.3984-3.6016-16.801-12-19.199l-20.398-4.8008 15.602-12c7.1992-6 8.3984-15.602 2.3984-21.602l-16.801-22.801 22.801 4.8008c4.8008 1.1992 8.3984 0 12-2.3984 3.6016-2.3984 6-7.1992 6-10.801l3.5938-32.402 12 20.398c2.3984 3.6016 6 7.1992 10.801 7.1992 4.8008 1.1992 9.6016 0 13.199-2.3984l26.398-19.199-3.6016 33.602c-1.1992 8.3984 4.8008 16.801 14.398 18l8.3984 1.1992-30 26.398c-7.1992 6-7.1992 15.602-1.1992 22.801s15.602 7.1992 22.801 1.1992l57.602-50.398c4.8008-3.6016 7.1992-10.801 4.8008-16.801s-7.1992-10.801-13.199-10.801l-28.801-3.6016 6-54c1.1992-6-2.3984-12-7.1992-15.602-6-3.6016-12-2.3984-16.801 1.1992l-40.801 28.801-27.602-48c-3.6016-6-10.801-9.6016-16.801-7.1992-7.1992 1.1992-12 7.1992-13.199 14.398l-7.1992 62.398-46.801-9.6016c-6-1.1992-13.199 1.1992-16.801 7.1992s-3.6016 13.199 1.1992 18z"/>
 </g>
</svg>
