<?xml version="1.0" encoding="UTF-8"?>
<svg width="1200pt" height="1200pt" version="1.1" viewBox="0 0 1200 1200" xmlns="http://www.w3.org/2000/svg">
 <g fill="#fff">
  <path d="m477.6 415.2c-12-10.801-30-15.602-45.602-12-27.602 8.3984-74.398 28.801-82.801 60-2.3984 6-4.8008 15.602-8.3984 26.398-9.6016 27.602-16.801 56.398-22.801 85.199-38.398 46.801-57.602 106.8-55.199 166.8 1.1992 31.199 12 50.398 30 60 7.1992 3.6016 14.398 4.8008 21.602 4.8008 22.801-2.3984 44.398-9.6016 62.398-22.801 26.398-2.3984 51.602-9.6016 75.602-20.398-1.1992 36 1.1992 72 7.1992 108-12 42-21.602 85.199-26.398 128.4-1.1992 7.1992 4.8008 13.199 10.801 14.398h1.1992l-1.2031 0.003906c7.1992 0 12-4.8008 13.199-12 6-43.199 14.398-85.199 26.398-126v-6c-4.8008-26.398-7.1992-54-7.1992-81.602 7.1992 2.3984 14.398-1.1992 16.801-8.3984 2.3984-6 0-12-4.8008-14.398-4.8008-4.8008-9.6016-9.6016-14.398-14.398-13.199-14.398-21.602-32.398-26.398-51.602-1.1992-7.1992-8.3984-12-15.602-9.6016-7.1992 1.1992-12 8.3984-9.6016 15.602 2.3984 12 7.1992 25.199 13.199 36-21.602 8.3984-44.398 14.398-67.199 18-2.3984 0-4.8008 1.1992-6 2.3984-9.6016 7.1992-42 26.398-60 18-10.801-4.8008-14.398-22.801-14.398-37.199-1.1992-55.199 18-109.2 52.801-152.4 2.3984-2.3984 3.6016-4.8008 3.6016-8.3984 4.8008-28.801 12-56.398 21.602-82.801 3.6016-10.801 6-19.199 8.3984-26.398 4.8008-15.602 36-32.398 66-42 8.3984 0 15.602 2.3984 21.602 7.1992 13.199 9.6016 21.602 25.199 20.398 42 0 9.6016-4.8008 18-12 24-16.801 12-38.398 15.602-58.801 12-8.3984-1.1992-14.398-8.3984-13.199-18 0-7.1992-4.8008-13.199-12-14.398-7.1992 0-13.199 4.8008-14.398 12-2.3984 21.602 13.199 42 34.801 45.602 3.6016 1.1992 7.1992 1.1992 9.6016 1.1992-8.4062 21.594-14.406 45.594-18.008 68.395-3.6016 28.801-8.3984 57.602-16.801 86.398-1.1992 7.1992 2.3984 14.398 9.6016 15.602 7.1992 1.1992 14.398-2.3984 15.602-9.6016 8.3984-30 13.199-61.199 16.801-92.398 3.6016-24 10.801-48 20.398-72 15.602-2.3984 30-8.3984 42-18 13.199-10.801 21.602-26.398 21.602-44.398 1.1992-22.801-9.6016-46.801-30-61.203z"/>
  <path d="m933.6 783.6c-2.3984-12-3.6016-21.602-4.8008-30-4.8008-36-8.3984-55.199-33.602-91.199 1.1992-36-9.6016-72-30-102-21.602-31.199-55.199-52.801-92.398-60-27.602-24-60-42-94.801-51.602-7.1992-6-8.3984-15.602-3.6016-22.801 14.398-28.801 16.801-86.398 4.8008-146.4-13.199-68.398-45.602-94.801-108-91.199-50.398 3.6016-108 19.199-103.2 115.2 3.6016 79.199 9.6016 94.801 52.801 135.6 38.398 36 86.398 18 105.6 3.6016 6-4.8008 7.1992-12 2.3984-18s-12-7.1992-18-2.3984c-1.1992 1.1992-40.801 28.801-72-1.1992-37.199-36-40.801-44.398-44.398-117.6-3.6016-68.398 27.602-84 79.199-87.602 49.199-3.6016 69.602 14.398 80.398 69.602 12 61.199 7.1992 110.4-2.3984 129.6-10.801 20.398-4.8008 44.398 13.199 57.602 1.1992 1.1992 2.3984 1.1992 3.6016 2.3984 32.398 9.6016 63.602 26.398 88.801 49.199 2.3984 2.3984 4.8008 3.6016 8.3984 3.6016 31.199 6 60 22.801 79.199 49.199 18 26.398 27.602 57.602 25.199 88.801 0 3.6016 0 7.1992 2.3984 9.6016 25.199 32.398 26.398 46.801 32.398 82.801 1.1992 9.6016 2.3984 19.199 4.8008 31.199 9.6016 56.398-1.1992 98.398-9.6016 108-3.6016 3.6016-6 3.6016-33.602-10.801l-3.6016-2.3984c-30-14.398-56.398-34.801-76.801-62.398-27.602-42-58.801-81.602-91.199-118.8-18-18-24-21.602-38.398-21.602-14.398 0-28.801-2.3984-42-7.1992-9.6016-2.3984-16.801-8.3984-21.602-18-12-21.602-4.8008-57.602-1.1992-70.801 3.6016-6 21.602-31.199 60-13.199 26.398 12 30 21.602 34.801 34.801 4.8008 15.602 15.602 30 30 39.602 10.801 7.1992 22.801 14.398 36 21.602 31.199 18 62.398 36 84 63.602 4.8008 6 13.199 7.1992 18 2.3984 6-4.8008 7.1992-13.199 2.3984-18-25.199-31.199-60-51.602-91.199-69.602-12-7.1992-24-14.398-34.801-21.602-9.6016-6-16.801-15.602-20.398-26.398-6-15.602-12-32.398-48-49.199-64.801-31.199-94.801 25.199-94.801 25.199-3.5938-0.011719-3.5938 1.1875-3.5938 1.1875-1.1992 2.3984-16.801 55.199 2.3984 91.199 7.1992 14.398 21.602 26.398 37.199 30 15.602 6 32.398 8.3984 48 8.3984 6 0 7.1992 0 20.398 13.199 32.398 36 62.398 74.398 90 115.2 4.8008 6 9.6016 12 14.398 16.801-4.8008 21.602-18 88.801-12 136.8 0 7.1992 6 12 13.199 12h1.1992c7.1992 0 12-7.1992 12-14.398-1.1992-37.199 1.1992-75.602 9.6016-111.6 15.602 12 32.398 22.801 49.199 32.398l3.6016 2.3984c13.199 8.3984 27.602 14.398 43.199 15.602 9.6016 0 18-4.8008 22.801-12 14.406-17.996 25.203-68.395 14.406-128.39z"/>
 </g>
</svg>
