<?xml version="1.0" encoding="UTF-8"?>
<svg width="1200pt" height="1200pt" version="1.1" viewBox="0 0 1200 1200" xmlns="http://www.w3.org/2000/svg">
 <g fill="#fff">
  <path d="m496.8 466.8 198 114c13.199 7.1992 13.199 28.801 0 36l-198 114c-12 7.1992-26.398-2.3984-26.398-18v-228c-0.003906-14.402 14.398-24 26.398-18z"/>
  <path d="m1077.6 238.8v-42c0-4.8008-3.6016-8.3984-8.3984-8.3984l-961.2-0.003906c-4.8008 0-8.3984 3.6016-8.3984 8.3984v42c0 4.8008 3.6016 8.3984 8.3984 8.3984h141.6c4.8008 0 8.3984 3.6016 8.3984 8.3984v36c0 4.8008-3.6016 8.3984-8.3984 8.3984l-141.6 0.007812c-4.8008 0-8.3984 3.6016-8.3984 8.3984v42c0 4.8008 3.6016 8.3984 8.3984 8.3984h54c4.8008 0 8.3984 3.6016 8.3984 8.3984v456c0 4.8008-3.6016 8.3984-8.3984 8.3984l-54 0.007812c-4.8008 0-8.3984 3.6016-8.3984 8.3984v42c0 4.8008 3.6016 8.3984 8.3984 8.3984h141.6c4.8008 0 8.3984 3.6016 8.3984 8.3984v36c0 4.8008-3.6016 8.3984-8.3984 8.3984l-141.6 0.003907c-4.8008 0-8.3984 3.6016-8.3984 8.3984v42c0 4.8008 3.6016 8.3984 8.3984 8.3984l960 0.003906c4.8008 0 8.3984-3.6016 8.3984-8.3984v-42c0-4.8008-3.6016-8.3984-8.3984-8.3984l-162-0.003906c-4.8008 0-8.3984-3.6016-8.3984-8.3984v-36c0-4.8008 3.6016-8.3984 8.3984-8.3984l162-0.003906c4.8008 0 8.3984-3.6016 8.3984-8.3984v-42c0-4.8008-3.6016-8.3984-8.3984-8.3984h-39.602c-4.8008 0-8.3984-3.6016-8.3984-8.3984v-451.2c0-4.8008 3.6016-8.3984 8.3984-8.3984h39.602c4.8008 0 8.3984-3.6016 8.3984-8.3984v-43.203c0-4.8008-3.6016-8.3984-8.3984-8.3984h-162c-4.8008 0-8.3984-3.6016-8.3984-8.3984v-36c0-4.8008 3.6016-8.3984 8.3984-8.3984l162-0.003907c4.8008-2.4023 9.6016-7.1992 9.6016-12zm-750 9.5977h220.8c4.8008 0 8.3984 3.6016 8.3984 8.3984v36c0 4.8008-3.6016 8.3984-8.3984 8.3984l-220.8 0.003907c-4.8008 0-8.3984-3.6016-8.3984-8.3984v-36c-1.2031-4.8008 3.5977-8.4023 8.3984-8.4023zm0 648h220.8c4.8008 0 8.3984 3.6016 8.3984 8.3984v36c0 4.8008-3.6016 8.3984-8.3984 8.3984l-220.8 0.003907c-4.8008 0-8.3984-3.6016-8.3984-8.3984v-36c-1.2031-4.8008 3.5977-8.4023 8.3984-8.4023zm500.4 54h-201.6c-4.8008 0-8.3984-3.6016-8.3984-8.3984v-36c0-4.8008 3.6016-8.3984 8.3984-8.3984h201.6c4.8008 0 8.3984 3.6016 8.3984 8.3984v36c1.2031 4.8008-3.5977 8.3984-8.3984 8.3984zm122.4-114h-710.4c-4.8008 0-8.3984-3.6016-8.3984-8.3984v-456c0-4.8008 3.6016-8.3984 8.3984-8.3984h711.6c4.8008 0 8.3984 3.6016 8.3984 8.3984v456c0 3.6016-4.8008 8.3984-9.6016 8.3984zm-122.4-534h-201.6c-4.8008 0-8.3984-3.6016-8.3984-8.3984v-36c0-4.8008 3.6016-8.3984 8.3984-8.3984h201.6c4.8008 0 8.3984 3.6016 8.3984 8.3984v36c1.2031 4.8008-3.5977 8.3984-8.3984 8.3984z"/>
 </g>
</svg>
