<svg xmlns="http://www.w3.org/2000/svg" viewBox="0 0 1200 1200" height="1200pt" width="1200pt"><g xmlns="http://www.w3.org/2000/svg" transform="matrix(-1 0 0 -1 1200 1200)"><path d="m964.55 579.65-700-500c-5.0117-3.582-11.168-5.1914-17.289-4.5195-6.1211 0.67578-11.781 3.5859-15.891 8.1758-4.1055 4.5898-6.375 10.535-6.3711 16.695v1e3c0.003906 4.5859 1.2695 9.0859 3.6602 13 2.3906 3.918 5.8125 7.0977 9.8906 9.1992 3.543 1.8242 7.4648 2.7812 11.449 2.8008 5.2148 0.007812 10.305-1.6211 14.551-4.6484l700-500c6.5742-4.6953 10.477-12.273 10.477-20.352s-3.9023-15.656-10.477-20.352z" fill="#fff" /></g></svg>