<?xml version="1.0" encoding="UTF-8"?>
<svg width="1200pt" height="1200pt" version="1.1" viewBox="0 0 1200 1200" xmlns="http://www.w3.org/2000/svg">
 <g fill="#f39c12">
  <path d="m825 600c0 124.27-100.73 225-225 225s-225-100.73-225-225 100.73-225 225-225 225 100.73 225 225z"/>
  <path d="m600 412.5c-103.55 0-187.5 83.945-187.5 187.5s83.945 187.5 187.5 187.5 187.5-83.945 187.5-187.5-83.945-187.5-187.5-187.5zm-262.5 187.5c0-144.98 117.52-262.5 262.5-262.5s262.5 117.52 262.5 262.5-117.52 262.5-262.5 262.5-262.5-117.52-262.5-262.5z" fill-rule="evenodd"/>
  <path d="m600 87.5c20.711 0 37.5 16.789 37.5 37.5v125c0 20.711-16.789 37.5-37.5 37.5s-37.5-16.789-37.5-37.5v-125c0-20.711 16.789-37.5 37.5-37.5zm0 825c20.711 0 37.5 16.789 37.5 37.5v125c0 20.711-16.789 37.5-37.5 37.5s-37.5-16.789-37.5-37.5v-125c0-20.711 16.789-37.5 37.5-37.5z" fill-rule="evenodd"/>
  <path d="m237.61 237.61c14.645-14.645 38.391-14.645 53.035 0l88.387 88.387c14.645 14.645 14.645 38.387 0 53.031-14.645 14.648-38.387 14.648-53.031 0l-88.391-88.387c-14.645-14.645-14.645-38.387 0-53.031zm583.36 583.36c14.645-14.645 38.391-14.645 53.035 0l88.387 88.391c14.645 14.645 14.645 38.391 0 53.031-14.645 14.645-38.387 14.645-53.031 0l-88.391-88.387c-14.645-14.645-14.645-38.391 0-53.035z" fill-rule="evenodd"/>
  <path d="m962.39 237.61c14.645 14.645 14.645 38.387 0 53.031l-88.391 88.391c-14.645 14.645-38.391 14.645-53.035 0s-14.645-38.391 0-53.035l88.391-88.387c14.645-14.645 38.391-14.645 53.035 0zm-583.36 583.36c14.645 14.645 14.645 38.391 0 53.035l-88.391 88.391c-14.645 14.641-38.387 14.641-53.031 0-14.645-14.645-14.645-38.391 0-53.035l88.387-88.391c14.645-14.645 38.391-14.645 53.035 0z" fill-rule="evenodd"/>
  <path d="m1112.5 600c0 20.711-16.789 37.5-37.5 37.5h-125c-20.711 0-37.5-16.789-37.5-37.5s16.789-37.5 37.5-37.5h125c20.711 0 37.5 16.789 37.5 37.5zm-825 0c0 20.711-16.789 37.5-37.5 37.5h-125c-20.711 0-37.5-16.789-37.5-37.5s16.789-37.5 37.5-37.5h125c20.711 0 37.5 16.789 37.5 37.5z" fill-rule="evenodd"/>
 </g>
</svg>
