<?xml version="1.0" encoding="UTF-8"?>
<svg width="1200pt" height="1200pt" version="1.1" viewBox="0 0 1200 1200" xmlns="http://www.w3.org/2000/svg">
 <g>
  <path d="m957.81 380.25h-57.812v-57.172c0.097656-39.227-7.625-78.078-22.715-114.29-15.09-36.207-37.246-69.043-65.176-96.59-56.273-55.848-132.34-87.191-211.62-87.199-79.281-0.011719-155.35 31.316-211.64 87.148-56.285 55.832-88.223 131.65-88.852 210.93v57.172h-57.812c-24.441 0.027344-47.871 9.75-65.156 27.031-17.281 17.281-27.004 40.715-27.031 65.156v610.38c0.027344 24.441 9.75 47.871 27.031 65.156 17.285 17.281 40.715 27.004 65.156 27.031h715.62c24.441-0.027344 47.871-9.75 65.156-27.031 17.281-17.285 27.004-40.715 27.031-65.156v-610.38c-0.027344-24.441-9.75-47.875-27.031-65.156-17.285-17.281-40.715-27.004-65.156-27.031zm-607.81-57.172c0.62891-66.039 27.316-129.16 74.25-175.62 46.934-46.457 110.32-72.504 176.36-72.461 66.043 0.039062 129.39 26.164 176.27 72.68 23.234 22.91 41.664 50.223 54.219 80.336 12.555 30.117 18.98 62.434 18.902 95.062v57.172h-65.629l0.003906-0.039062v-47.617c0.0625-24.121-4.6875-48.012-13.965-70.277-9.2812-22.262-22.902-42.453-40.074-59.395-34.59-34.324-81.344-53.59-130.07-53.586-48.73 0-95.484 19.262-130.07 53.59-34.586 34.328-54.199 80.938-54.566 129.67v47.617l0.003906 0.035156-65.629 0.003906zm384.38 57.172h-268.76l0.003906-0.039062v-47.617c0.36719-35.488 14.73-69.395 39.965-94.352 25.234-24.953 59.301-38.938 94.789-38.906 35.488 0.027343 69.531 14.066 94.727 39.062 25.199 24.855 39.348 58.797 39.27 94.195v47.617zm265.62 702.56c-0.011719 11.184-4.4609 21.91-12.371 29.816-7.9062 7.9102-18.633 12.359-29.816 12.371h-715.62c-11.184-0.011719-21.91-4.4609-29.816-12.371-7.9102-7.9062-12.359-18.633-12.371-29.816v-610.38c0.011719-11.188 4.4609-21.91 12.371-29.82 7.9062-7.9062 18.633-12.355 29.816-12.367h715.62c11.184 0.011719 21.91 4.4609 29.816 12.367 7.9102 7.9102 12.359 18.633 12.371 29.82z"/>
  <path d="m600 595.98c-36.352-0.0625-71.242 14.297-97.02 39.926-25.777 25.629-40.336 60.438-40.48 96.789-0.03125 36.711 14.805 71.867 41.125 97.461-10.594 17.41-16.176 37.41-16.125 57.793 0.22266 40.043 21.715 76.949 56.43 96.906 34.715 19.957 77.426 19.957 112.14 0 34.715-19.957 56.207-56.863 56.43-96.906 0.046875-20.383-5.5312-40.383-16.125-57.793 26.32-25.594 41.156-60.75 41.125-97.461-0.14453-36.352-14.703-71.16-40.48-96.789-25.777-25.629-60.668-39.988-97.02-39.926zm47.875 209.23c-6.3555 4.1289-10.496 10.918-11.254 18.461-0.75781 7.543 1.9492 15.023 7.3594 20.332 11.863 11.543 18.543 27.395 18.52 43.945-0.22266 22.18-12.184 42.582-31.43 53.609-19.246 11.027-42.895 11.027-62.141 0-19.246-11.027-31.207-31.43-31.43-53.609-0.023438-16.551 6.6562-32.402 18.52-43.945 5.4102-5.3086 8.1172-12.789 7.3594-20.332-0.75781-7.543-4.8984-14.332-11.254-18.461-24.672-15.871-39.598-43.184-39.625-72.516 0.28125-31.07 17.023-59.664 43.977-75.117 26.957-15.453 60.09-15.453 87.047 0 26.953 15.453 43.695 44.047 43.977 75.117-0.027344 29.332-14.953 56.645-39.625 72.516z"/>
 </g>
</svg>
