<?xml version="1.0" encoding="UTF-8"?>
<svg width="1200pt" height="1200pt" version="1.1" viewBox="0 0 1200 1200" xmlns="http://www.w3.org/2000/svg">
 <path d="m1165.9 510.12-109.44-213.84-297.36-94.441h-319.44l-297.48 94.441-107.52 198-0.60156 307.8 292.56 196.2h542.64l296.52-195.48 0.003906-292.68zm-784.2 186.24h441.96v244.92h-441.96zm-41.039-57-99.719-63.719 204.6-77.398h305.04l206.16 77.879-98.883 63.238zm-240 11.762v-97.68l36.48 23.281zm2.3984-163.56 31.32-57.598v77.52zm-6.4766 290.76 88.199-171.12 129 82.32v232.08zm313.44-507.48v180.12l-207.84 78.48v-192.48zm310.8 170.52h-243v-182.76h242.88v182.76zm275.64-104.4v193.44l-207.84-78.477v-181.08zm15.48 271.32 87.602 170.04-208.08 137.16v-229.92zm48-30.48 38.039-24.48v100.44zm4.3203-70.32v-77.52l31.32 57.598z" fill="#fff"/>
</svg>
