<?xml version="1.0" encoding="UTF-8"?>
<svg width="1200pt" height="1200pt" version="1.1" viewBox="0 0 1200 1200" xmlns="http://www.w3.org/2000/svg">
 <g>
  <path d="m1083 1140h-971.04c-8.2617 0-14.961-6.6992-14.961-14.961 0-8.2617 6.6992-14.961 14.961-14.961h971.04c8.2617 0 14.961 6.6992 14.961 14.961 0 8.2617-6.6992 14.961-14.961 14.961z"/>
  <path d="m507.78 612.69c0 48.34-39.188 87.531-87.531 87.531-48.34 0-87.527-39.191-87.527-87.531s39.188-87.527 87.527-87.527c48.344 0 87.531 39.188 87.531 87.527"/>
  <path d="m287.08 404.05c0 48.34-39.191 87.527-87.531 87.527s-87.527-39.188-87.527-87.527c0-48.344 39.188-87.531 87.527-87.531s87.531 39.188 87.531 87.531"/>
  <path d="m502.55 325.02c-15.574-3.6289-31.656-4.5391-47.543-2.6914l-63.16 7.3398-112.75-148.64c-12.457-10.949-31.609-9.7109-42.555 2.7461-10.949 12.457-9.7109 31.609 2.7461 42.555l90.145 114.03c-17.699 8.6445-30.469 25.68-33.164 46.086l-4.6094 34.828c1.5391 18.035 1.6523 21.859 11.488 34.309l-114.73 154c-7.1758 9.6328-9.5156 22.48-4.9219 33.578 13.184 31.84 50.676 33.18 67.512 10.578 0 0 115.93-156 116.48-156.88 96.02-20.059 147.79-57.355 147.79-57.355v-111.53z"/>
  <path d="m1049.5 474.24-318.96-114.79 104.48-202.7 168.46-12.176c21.926 2.6094 42-13.195 44.609-35.121s-13.195-42-35.121-44.609c0 0-210.25 14.508-216.03 16.656-11.223 3.0781-21.098 10.777-26.172 22.172l-156.23 228.71 2.0234 105.86 411.84 113.47c21.305 5.8047 43.484-6.875 49.289-28.18 5.8008-21.301-6.8789-43.484-28.184-49.289z"/>
  <path d="m717.03 676.32c4.7656 3.5352 68.617 27.148 68.617 27.148l69.41-152.31c-3.1992-2.0391-68.043-26.422-68.043-26.422z"/>
  <path d="m1089.6 806.4c-0.054688-0.19141-0.12109-0.37891-0.1875-0.57031-2.0078-6.2188-5.3789-12.078-10.449-16.848 0 0-210.68-226.19-212.05-227.73l-67.098 147.23 112.27 63.98-23.297 263.74c-1.8047 22.008 14.73 41.488 36.738 43.289 22.008 1.8047 41.488-14.73 43.289-36.738l18.027-220.16 24.551 16.461 0.12109 195.93c-1.8008 22.008 14.73 41.488 36.738 43.289 22.008 1.8008 41.488-14.73 43.289-36.738 0 0.003907 2.043-221.09-1.9492-235.14z"/>
  <path d="m745.39 507.79-85.625-35.223c-14.926-6.1367-31.328-8.7891-47.395-7.6992l-6.8359 0.46875-1.0898-147.06c-0.097657-22.082-18.242-40.066-40.324-39.969s-40.066 18.242-39.969 40.324l1.1406 153.35c-12.039 3.2578-22.414 10.992-28.594 22.172-6.3711 11.527-7.5547 25.277-3.2578 37.715l26.125 75.641c4.8438 14.035 15.246 24.797 28.531 29.531 38.434 13.703 100.03 17.621 128.97 18.734z"/>
 </g>
</svg>
