<?xml version="1.0" encoding="UTF-8"?>
<svg width="1200pt" height="1200pt" version="1.1" viewBox="0 0 1200 1200" xmlns="http://www.w3.org/2000/svg">
 <path d="m566.02 173.31h67.957c43.312 0 78.738 35.426 78.738 78.727v235.25h235.24c43.312 0 78.738 35.426 78.738 78.727v67.957c0 43.312-35.426 78.727-78.738 78.727h-235.24v235.27c0 43.289-35.426 78.727-78.738 78.727h-67.957c-43.301 0-78.727-35.438-78.727-78.727v-235.27h-235.24c-43.312 0-78.738-35.414-78.738-78.727v-67.957c0-43.301 35.426-78.727 78.738-78.727h235.24v-235.25c0-43.301 35.426-78.727 78.727-78.727z" fill-rule="evenodd"/>
</svg>
