<?xml version="1.0" encoding="UTF-8"?>
<svg width="1200pt" height="1200pt" version="1.1" viewBox="0 0 1200 1200" xmlns="http://www.w3.org/2000/svg">
 <path d="m89.039 1114.8 102.96-4.6797c19.531-0.77734 37.191-11.82 46.441-29.043 7.2812 6.3672 16.609 9.9023 26.277 9.9609h1.8008l439.68 29.16h16.801c57.797-0.027344 114.2-17.742 161.64-50.758l280.08-195.84c12.863-9.0703 21.156-23.277 22.723-38.938 1.5664-15.66-3.7461-31.23-14.562-42.664l-1.1992-1.1992c-8.6992-9.1055-20.25-14.961-32.734-16.598-12.484-1.6367-25.152 1.043-35.906 7.5977-87.84 53.52-260.04 157.08-260.04 157.08-21.484 13.055-46.027 20.215-71.16 20.762l-195.84 0.35938c-7.1562 0.29688-13.203-5.2617-13.5-12.422-0.29688-7.1562 5.2617-13.199 12.422-13.5l200.28-3.6016-0.003906 0.003907c16.219-0.53125 31.008-9.4062 39.109-23.465 8.1055-14.055 8.3711-31.301 0.70312-45.602-7.668-14.301-22.18-23.625-38.371-24.652l-118.32-8.7617c-49.641-3.8984-98.59-14.059-145.68-30.238-150.6-55.68-240-27.121-288-12-5.3086-8.2852-12.707-15.02-21.453-19.527-8.7422-4.5117-18.52-6.6328-28.348-6.1562l-102.84 4.6836c-16.402 0.24609-32.016 7.0938-43.305 18.992-11.293 11.902-17.312 27.852-16.695 44.246l12 229.56c1.1406 16.176 8.6055 31.25 20.777 41.965 12.172 10.711 28.074 16.199 44.262 15.277zm40.441-121.44c8.9102 0.53906 17.25 4.5625 23.215 11.203 5.9648 6.6406 9.0781 15.363 8.6602 24.281-0.41406 8.9141-4.3242 17.309-10.883 23.367-6.5586 6.0547-15.238 9.2852-24.16 8.9883-8.9219-0.29297-17.367-4.0898-23.512-10.566-6.1445-6.4727-9.4922-15.109-9.3203-24.031 0.375-9.1797 4.375-17.836 11.125-24.066 6.75-6.2344 15.695-9.5312 24.875-9.1758zm713.04-150.96 162.36-84c9.4141-5.0742 20.168-7.1094 30.785-5.8164 10.617 1.2891 20.57 5.8359 28.496 13.02-72 44.16-155.04 94.922-210.72 128.76v-0.003906c2.3594-17.941-1.4922-36.152-10.922-51.598zm90.359-104.16c10.238 0.125 20.211 3.2539 28.68 9l-142.32 70.922c-11.914-8.3555-25.91-13.258-40.438-14.16l-20.16-1.4414 153.12-60c6.6602-2.8906 13.855-4.3633 21.117-4.3203zm-279.84-658.92c-88.188 0-172.77 35.031-235.12 97.391-62.359 62.363-97.395 146.94-97.395 235.13s35.035 172.77 97.395 235.13c62.359 62.359 146.94 97.391 235.12 97.391 88.191 0 172.77-35.031 235.13-97.391s97.391-146.94 97.391-235.13c-0.09375-88.16-35.156-172.68-97.496-235.02-62.34-62.336-146.86-97.402-235.02-97.496zm22.801 498.24v28.68c0 9.4766-5.0547 18.23-13.262 22.969-8.2031 4.7383-18.312 4.7383-26.52 0-8.2031-4.7383-13.258-13.492-13.258-22.969v-24.84c-21.996-1.1367-43.742-5.1719-64.68-12-7.6172-2.4414-14.016-7.7031-17.875-14.711-3.8594-7.0039-4.8906-15.223-2.8867-22.969l0.60156-2.5195c1.7109-6.6055 5.582-12.445 10.996-16.602 5.4141-4.1523 12.059-6.375 18.883-6.3164 3.5508-0.019531 7.0742 0.54688 10.441 1.6797 18.836 6.543 38.617 9.9453 58.559 10.078 30.84 0 51.961-12 51.961-33.602s-17.281-33.602-57.359-47.16c-57.961-19.441-97.441-46.559-97.441-99.121 0-48 33.602-85.078 91.559-96v-24.715c0-9.4766 5.0547-18.23 13.262-22.969 8.2031-4.7383 18.312-4.7383 26.52 0 8.207 4.7383 13.262 13.492 13.262 22.969v21.121-0.003906c16.688 0.57031 33.262 2.9453 49.438 7.082 9.7539 2.7695 17.574 10.07 21.004 19.613 3.4258 9.5391 2.043 20.148-3.7148 28.492-5.7617 8.3438-15.191 13.398-25.328 13.574-2.9297-0.023437-5.8398-0.46875-8.6406-1.3203-15.578-4.6133-31.75-6.918-48-6.8398-35.16 0-46.559 15.121-46.559 30.359 0 17.879 18.961 29.281 65.039 46.559 64.441 22.801 90.48 52.559 90.48 101.28 0 48.719-34.199 89.402-96.48 100.2z" fill="#787878"/>
</svg>
