<?xml version="1.0" encoding="UTF-8"?>
<svg width="1200pt" height="1200pt" version="1.1" viewBox="0 0 1200 1200" xmlns="http://www.w3.org/2000/svg">
 <g fill="#fff">
  <path d="m962.4 812.4c-4.8008 4.8008-12 4.8008-16.801 0l-38.398-38.398v120c0 6-4.8008 12-12 12s-12-6-12-12v-120l-38.398 38.398c-2.3984 2.3984-6 3.6016-8.3984 3.6016-3.6016 0-6-1.1992-8.3984-3.6016-4.8008-4.8008-4.8008-12 0-16.801l58.801-58.801c1.1992-1.1992 2.3984-2.3984 3.6016-2.3984 2.3984-1.1992 6-1.1992 9.6016 0 1.1992 0 2.3984 1.1992 3.6016 2.3984l58.801 58.801c4.7891 4.8008 4.7891 12.004-0.011718 16.801z"/>
  <path d="m372 458.4c-42 0-76.801-33.602-76.801-76.801 0-42 33.602-75.602 76.801-75.602 42 0 75.602 33.602 75.602 75.602 0 43.203-33.602 76.801-75.602 76.801z"/>
  <path d="m907.2 655.2v-400.8c0-19.199-15.602-36-36-36h-676.8c-20.398 0-36 16.801-36 36v541.2c0 19.199 15.602 36 36 36h536.4c6 85.199 78 153.6 164.4 153.6 91.199 0 165.6-74.398 165.6-165.6-1.1953-86.398-68.398-158.4-153.6-164.4zm-724.8-400.8c0-6 4.8008-12 12-12h676.8c7.1992 0 12 6 12 12v351.6l-175.2-153.6c-4.8008-3.6016-12-3.6016-15.602 0l-211.2 196.8-97.199-96c-3.6016-3.6016-10.801-4.8008-15.602-1.1992l-186 135.6zm712.8 706.8c-78 0-140.4-63.602-140.4-141.6s63.602-141.6 140.4-141.6c78 0 141.6 63.602 141.6 141.6-1.1992 78.004-63.602 141.6-141.6 141.6z"/>
 </g>
</svg>
